<?xml version="1.0" encoding="utf-8"?>
<!-- Generator: Adobe Illustrator 16.0.0, SVG Export Plug-In . SVG Version: 6.00 Build 0)  -->
<!DOCTYPE svg PUBLIC "-//W3C//DTD SVG 1.1//EN" "http://www.w3.org/Graphics/SVG/1.1/DTD/svg11.dtd">
<svg version="1.1"
	 id="svg2" xmlns:dc="http://purl.org/dc/elements/1.1/" xmlns:cc="http://creativecommons.org/ns#" xmlns:rdf="http://www.w3.org/1999/02/22-rdf-syntax-ns#" xmlns:svg="http://www.w3.org/2000/svg" xmlns:sodipodi="http://sodipodi.sourceforge.net/DTD/sodipodi-0.dtd" xmlns:inkscape="http://www.inkscape.org/namespaces/inkscape" sodipodi:docname="space shuttle.svg" inkscape:version="0.48.2 r9819"
	 xmlns="http://www.w3.org/2000/svg" xmlns:xlink="http://www.w3.org/1999/xlink" x="0px" y="0px" width="134.984px"
	 height="187.557px" viewBox="0 0 134.984 187.557" enable-background="new 0 0 134.984 187.557" xml:space="preserve">
<sodipodi:namedview  inkscape:cy="52.654362" inkscape:cx="26.69104" inkscape:zoom="4" showgrid="true" guidetolerance="10" gridtolerance="10" objecttolerance="10" borderopacity="1" pagecolor="#ffffff" bordercolor="#666666" id="namedview6" inkscape:window-maximized="1" inkscape:window-y="-8" inkscape:window-height="706" inkscape:pageshadow="2" inkscape:window-x="-8" inkscape:pageopacity="0" inkscape:snap-grids="false" inkscape:current-layer="layer1" inkscape:window-width="1366">
	<inkscape:grid  type="xygrid" id="grid8729"></inkscape:grid>
</sodipodi:namedview>
<g id="layer2" inkscape:label="layer1" inkscape:groupmode="layer" display="none">
</g>
<rect x="-205.939" y="-129.469" width="134.938" height="187.462"/>
<g>
	<polygon fill="#FFFFFF" points="-156.659,25.491 -138.822,-99.395 -120.985,25.491 	"/>
	<polygon fill="#FFFFFF" points="-120.931,25.491 -138.795,54.552 -156.659,25.491 	"/>
	<g>
		<path fill="#FFFFFF" d="M-128.931-107.509c4.4,0,6.115,2.958,3.812,6.706l-9.481,15.37c-2.305,3.749-6.075,3.724-8.379-0.024
			l-9.485-15.333c-2.305-3.748-0.591-6.719,3.811-6.719H-128.931z"/>
	</g>
</g>
<path fill="none" stroke="#FFFFFF" stroke-width="2.5" stroke-miterlimit="10" d="M-182.6-123.449l17.942,19.16
	c0,0,26.44-43.268,51.724,0.001l17.942-19.162"/>
<g>
	<g>
		<polygon fill="#FFFFFF" points="49.629,153.753 67.466,28.866 85.302,153.753 		"/>
		<polygon fill="#FFFFFF" points="85.355,153.753 67.493,182.814 49.629,153.753 		"/>
		<g>
			<path fill="#FFFFFF" d="M77.355,20.753c4.399,0,6.115,2.958,3.812,6.706l-9.483,15.372c-2.304,3.749-6.074,3.722-8.378-0.026
				L53.82,27.471c-2.305-3.748-0.591-6.719,3.81-6.719L77.355,20.753L77.355,20.753z"/>
		</g>
	</g>
	<path fill="none" stroke="#FFFFFF" stroke-width="1.5" stroke-miterlimit="10" d="M23.687,4.812l17.943,19.16
		c0,0,26.44-43.266,51.723,0.001l17.942-19.162"/>
</g>
</svg>
