<?xml version="1.0" encoding="utf-8"?>
<!-- Generator: Adobe Illustrator 16.0.0, SVG Export Plug-In . SVG Version: 6.00 Build 0)  -->
<!DOCTYPE svg PUBLIC "-//W3C//DTD SVG 1.1//EN" "http://www.w3.org/Graphics/SVG/1.1/DTD/svg11.dtd">
<svg version="1.1"
	 id="svg2" xmlns:inkscape="http://www.inkscape.org/namespaces/inkscape" xmlns:sodipodi="http://sodipodi.sourceforge.net/DTD/sodipodi-0.dtd" xmlns:svg="http://www.w3.org/2000/svg" xmlns:rdf="http://www.w3.org/1999/02/22-rdf-syntax-ns#" xmlns:cc="http://creativecommons.org/ns#" xmlns:dc="http://purl.org/dc/elements/1.1/" inkscape:version="0.48.2 r9819" sodipodi:docname="space shuttle.svg"
	 xmlns="http://www.w3.org/2000/svg" xmlns:xlink="http://www.w3.org/1999/xlink" x="0px" y="0px" width="313.99px"
	 height="436.301px" viewBox="-89.503 -124.372 313.99 436.301" enable-background="new -89.503 -124.372 313.99 436.301"
	 xml:space="preserve">
<sodipodi:namedview  id="namedview6" bordercolor="#666666" pagecolor="#ffffff" borderopacity="1" objecttolerance="10" gridtolerance="10" guidetolerance="10" showgrid="true" inkscape:zoom="4" inkscape:cx="26.69104" inkscape:cy="52.654362" inkscape:window-x="-8" inkscape:current-layer="layer1" inkscape:window-maximized="1" inkscape:pageopacity="0" inkscape:pageshadow="2" inkscape:window-y="-8" inkscape:snap-grids="false" inkscape:window-height="706" inkscape:window-width="1366">
	<inkscape:grid  type="xygrid" id="grid8729"></inkscape:grid>
</sodipodi:namedview>
<g id="layer2" inkscape:label="layer1" inkscape:groupmode="layer" display="none">
</g>
<rect x="-467.444" y="-137.469" width="134.938" height="187.462"/>
<g>
	<polygon fill="#FFFFFF" points="-418.164,17.491 -400.326,-107.395 -382.49,17.491 	"/>
	<polygon fill="#FFFFFF" points="-382.436,17.491 -400.3,46.552 -418.164,17.491 	"/>
	<g>
		<path fill="#FFFFFF" d="M-390.436-115.509c4.4,0,6.115,2.958,3.812,6.706l-9.479,15.366c-2.305,3.749-6.075,3.728-8.379-0.021
			l-9.485-15.333c-2.305-3.748-0.591-6.719,3.812-6.719H-390.436z"/>
	</g>
</g>
<path fill="none" stroke="#FFFFFF" stroke-width="2.5" stroke-miterlimit="10" d="M-444.105-131.449l17.938,19.16
	c0,0,26.44-43.271,51.728,0.001l17.938-19.162"/>
<g>
	<polygon fill="#428CFF" points="-309.872,-77.494 -292.036,-202.381 -274.199,-77.494 	"/>
	<polygon fill="#428CFF" points="-274.146,-77.494 -292.008,-48.433 -309.872,-77.494 	"/>
	<g>
		<path fill="#428CFF" d="M-282.146-210.494c4.396,0,6.115,2.958,3.812,6.706l-9.479,15.372c-2.308,3.749-6.074,3.722-8.378-0.026
			l-9.488-15.334c-2.305-3.748-0.591-6.719,3.81-6.719L-282.146-210.494L-282.146-210.494z"/>
	</g>
	<path fill="none" stroke="#428CFF" stroke-width="1.5" stroke-miterlimit="10" d="M-335.814-226.435l17.939,19.16
		c0,0,26.44-43.266,51.727,0.001l17.938-19.162"/>
</g>
<g>
	<polygon fill="#428CFF" points="85.629,-54.369 89.938,-29.427 67.527,-41.177 45.141,-29.385 49.392,-54.33 31.248,-71.971 
		56.293,-75.633 67.468,-98.339 78.687,-75.662 103.732,-72.055 	"/>
	<polygon fill="#428CFF" points="85.631,24.452 89.94,49.392 67.525,37.638 45.143,49.44 49.394,24.493 31.25,6.848 56.287,3.174 
		67.466,-19.523 78.689,3.154 103.734,6.766 	"/>
	<polygon fill="#428CFF" points="85.627,103.277 89.938,128.216 67.529,116.47 45.139,128.257 49.392,103.318 31.248,85.673 
		56.289,82.004 67.466,59.304 78.689,81.971 103.734,85.601 	"/>
	<polygon fill="none" stroke="#428CFF" stroke-width="0.5" points="85.633,182.101 89.944,207.038 67.525,195.286 45.139,207.073 
		49.392,182.136 31.248,164.493 56.289,160.823 67.464,138.128 78.689,160.794 103.734,164.419 	"/>
	<polygon fill="none" stroke="#428CFF" stroke-width="0.5" points="85.633,260.913 89.94,285.855 67.529,274.107 45.141,285.896 
		49.394,260.947 31.246,243.304 56.291,239.634 67.469,216.947 78.689,239.613 103.738,243.241 	"/>
</g>
</svg>
