<?xml version="1.0" encoding="utf-8"?>
<!-- Generator: Adobe Illustrator 16.0.0, SVG Export Plug-In . SVG Version: 6.00 Build 0)  -->
<!DOCTYPE svg PUBLIC "-//W3C//DTD SVG 1.1//EN" "http://www.w3.org/Graphics/SVG/1.1/DTD/svg11.dtd">
<svg version="1.1"
	 id="svg2" xmlns:inkscape="http://www.inkscape.org/namespaces/inkscape" xmlns:sodipodi="http://sodipodi.sourceforge.net/DTD/sodipodi-0.dtd" xmlns:svg="http://www.w3.org/2000/svg" xmlns:rdf="http://www.w3.org/1999/02/22-rdf-syntax-ns#" xmlns:cc="http://creativecommons.org/ns#" xmlns:dc="http://purl.org/dc/elements/1.1/" inkscape:version="0.48.2 r9819" sodipodi:docname="space shuttle.svg"
	 xmlns="http://www.w3.org/2000/svg" xmlns:xlink="http://www.w3.org/1999/xlink" x="0px" y="0px" width="313.99px"
	 height="436.301px" viewBox="-89.505 -124.37 313.99 436.301" enable-background="new -89.505 -124.37 313.99 436.301"
	 xml:space="preserve">
<sodipodi:namedview  id="namedview6" bordercolor="#666666" pagecolor="#ffffff" borderopacity="1" objecttolerance="10" gridtolerance="10" guidetolerance="10" showgrid="true" inkscape:zoom="4" inkscape:cx="26.69104" inkscape:cy="52.654362" inkscape:window-x="-8" inkscape:current-layer="layer1" inkscape:window-maximized="1" inkscape:pageopacity="0" inkscape:pageshadow="2" inkscape:window-y="-8" inkscape:snap-grids="false" inkscape:window-height="706" inkscape:window-width="1366">
	<inkscape:grid  type="xygrid" id="grid8729"></inkscape:grid>
</sodipodi:namedview>
<g id="layer2" inkscape:label="layer1" inkscape:groupmode="layer" display="none">
</g>
<rect x="-523.492" y="122.824" width="187.508" height="134.939"/>
<rect x="-420.939" y="-129.469" width="134.938" height="187.462"/>
<path fill="none" stroke="#FFFFFF" stroke-miterlimit="10" d="M-446.554,164.007c0.608-21.254,18.027-38.298,39.428-38.298
	c21.783,0,39.441,17.659,39.441,39.442c0,9.172-3.131,17.611-8.38,24.308"/>
<g>
	<polygon fill="#FFFFFF" points="-371.659,25.491 -353.822,-99.395 -335.985,25.491 	"/>
	<polygon fill="#FFFFFF" points="-335.931,25.491 -353.795,54.552 -371.659,25.491 	"/>
	<g>
		<path fill="#FFFFFF" d="M-343.931-107.509c4.4,0,6.115,2.958,3.812,6.706l-9.48,15.37c-2.305,3.749-6.074,3.724-8.379-0.024
			l-9.484-15.333c-2.306-3.748-0.592-6.719,3.812-6.719H-343.931z"/>
	</g>
</g>
<path fill="none" stroke="#FFFFFF" stroke-width="2.5" stroke-miterlimit="10" d="M-397.6-123.449l17.941,19.16
	c0,0,26.44-43.268,51.725,0.001l17.941-19.162"/>
<path fill="#428CFF" d="M51.711,57.099l-13.099,8.462l0.471-0.064l0.131,0.064l-6.281-76.555c-1.762-0.109-3.466-0.143-5.222-0.114
	C-27.146-10.125-76.684,56.427-78.524,129.614c0,39.037,3.143,98.092,29.238,129.141c6.767,5.783,12.505,8.203,17.575,8.166
	c27.383-0.246,35.34-72.301,81.442-74.385l-7.139-99.667l25.173-14.315l0.044,0.024l0.05-0.029h0.002l0,0l26.929,16.439v0.002
	l-9.726,97.551c45.923,2.08,53.839,73.998,81.371,74.379c5.085,0,10.839-2.424,17.615-8.162
	c11.182-13.314,18.174-29.598,22.521-49.416c5.769-26.395,6.838-52.787,6.838-75.35h0.047c0,22.564-1.094,48.951-6.885,75.35
	c-4.328,19.818-11.312,39.703-22.496,53.025c-6.133,5.189-11.43,7.008-16.149,9.516h0.005c4.72-2.508,10.019-5.416,16.148-10.605
	c22.202-26.43,27.929-74.371,29.144-111.771c0.207-6.535,0.28-13.422,0.28-19.236c-2.061-73.189-50.088-140.034-104.836-141.01
	c-1.755-0.029-3.52-0.147-5.286-0.042l-6.765,78.429l-0.605-0.101v0.029L78.864,57.95L77.759-82.913v-0.408
	c-4.562-0.65-9.556-1-14.136-1c-4.276,0-8.676,0.308-13.238,0.873v0.417L51.711,57.099z"/>
<path fill="none" stroke="#FFFFFF" stroke-miterlimit="10" d="M-370.057,197.693c-1.006,0-2.009,0.056-3.005,0.168
	c-1.907-11.792-12.162-20.826-24.487-20.826c-6.532,0-12.815,2.637-17.431,7.197c-3.319-1.776-7.062-2.648-10.883-2.486
	c-6.8-12.317-19.855-20.132-34.036-20.132c-21.441,0-38.886,17.445-38.886,38.886c0,1.657,0.104,3.319,0.318,4.97
	c-7.208,4.488-11.719,12.449-11.719,21.054c0,13.682,11.129,24.807,24.81,24.807c0.092,0,115.317,0,115.317,0
	c14.788,0,26.815-12.03,26.815-26.815C-343.238,209.724-355.269,197.693-370.057,197.693z M-370.057,243.283
	c0,0-115.361-0.008-115.317,0c-9.245,0-16.764-7.52-16.764-16.759c0-6.523,3.845-12.498,9.792-15.229
	c0.013-0.004,0.021-0.014,0.032-0.021c1.488-0.499,3.039-0.761,4.635-0.761c4.074,0,7.994,1.725,10.751,4.729
	c0.396,0.433,0.938,0.651,1.481,0.651c0.485,0,0.973-0.179,1.36-0.53c0.818-0.751,0.874-2.021,0.124-2.842
	c-3.517-3.834-8.516-6.035-13.717-6.035c-0.818,0-1.627,0.072-2.431,0.18c-0.409-2.034-0.629-4.106-0.629-6.168
	c0-17.006,13.836-30.84,30.841-30.84c12.024,0,23.032,7.09,28.041,18.062c0.765,1.677,2.569,2.616,4.385,2.285
	c0.858-0.155,1.655-0.231,2.438-0.231c3.033,0,5.901,1,8.298,2.89c0.043,0.035,0.099,0.062,0.144,0.091
	c3.24,2.525,5.622,6.061,6.688,10.079c0.24,0.903,1.053,1.498,1.945,1.498c0.169,0,0.346-0.021,0.519-0.066
	c1.074-0.284,1.713-1.388,1.43-2.46c-0.964-3.609-2.805-6.89-5.279-9.597c0.099-0.104,0.2-0.192,0.282-0.31
	c3.204-4.332,8.112-6.819,13.462-6.819c9.246,0,16.766,7.519,16.766,16.762c0,0.103-0.014,0.195-0.021,0.297l-0.024,0.406
	c-0.062,1.312,0.521,2.565,1.56,3.368c1.037,0.801,2.404,1.046,3.649,0.66c1.794-0.558,3.667-0.838,5.562-0.838
	c10.354,0,18.771,8.42,18.771,18.769C-351.288,234.862-359.704,243.283-370.057,243.283z"/>
</svg>
