<?xml version="1.0" encoding="utf-8"?>
<!-- Generator: Adobe Illustrator 16.0.0, SVG Export Plug-In . SVG Version: 6.00 Build 0)  -->
<!DOCTYPE svg PUBLIC "-//W3C//DTD SVG 1.1//EN" "http://www.w3.org/Graphics/SVG/1.1/DTD/svg11.dtd">
<svg version="1.1"
	 id="svg2" xmlns:dc="http://purl.org/dc/elements/1.1/" xmlns:cc="http://creativecommons.org/ns#" xmlns:rdf="http://www.w3.org/1999/02/22-rdf-syntax-ns#" xmlns:svg="http://www.w3.org/2000/svg" xmlns:sodipodi="http://sodipodi.sourceforge.net/DTD/sodipodi-0.dtd" xmlns:inkscape="http://www.inkscape.org/namespaces/inkscape" sodipodi:docname="space shuttle.svg" inkscape:version="0.48.2 r9819"
	 xmlns="http://www.w3.org/2000/svg" xmlns:xlink="http://www.w3.org/1999/xlink" x="0px" y="0px" width="134.98px"
	 height="187.56px" viewBox="26.288 -26.288 134.98 187.56" enable-background="new 26.288 -26.288 134.98 187.56"
	 xml:space="preserve">
<sodipodi:namedview  inkscape:cy="52.654362" inkscape:cx="26.69104" inkscape:zoom="4" showgrid="true" guidetolerance="10" gridtolerance="10" objecttolerance="10" borderopacity="1" pagecolor="#ffffff" bordercolor="#666666" id="namedview6" inkscape:window-maximized="1" inkscape:window-y="-8" inkscape:window-height="706" inkscape:window-x="-8" inkscape:snap-grids="false" inkscape:current-layer="layer1" inkscape:window-width="1366" inkscape:pageopacity="0" inkscape:pageshadow="2">
	<inkscape:grid  type="xygrid" id="grid8729"></inkscape:grid>
</sodipodi:namedview>
<g id="layer2" inkscape:label="layer1" inkscape:groupmode="layer" display="none">
</g>
<rect x="-329.434" y="141.285" width="187.508" height="134.939"/>
<rect x="-205.939" y="-129.469" width="134.938" height="187.462"/>
<path fill="none" stroke="#FFFFFF" stroke-miterlimit="10" d="M-252.495,182.468c0.608-21.254,18.027-38.298,39.427-38.298
	c21.784,0,39.442,17.659,39.442,39.442c0,9.172-3.131,17.611-8.38,24.308"/>
<g>
	<polygon fill="#FFFFFF" points="-156.659,25.491 -138.822,-99.395 -120.985,25.491 	"/>
	<polygon fill="#FFFFFF" points="-120.931,25.491 -138.795,54.552 -156.659,25.491 	"/>
	<g>
		<path fill="#FFFFFF" d="M-128.931-107.509c4.4,0,6.115,2.958,3.812,6.706l-9.481,15.37c-2.305,3.749-6.074,3.724-8.379-0.024
			l-9.484-15.333c-2.306-3.748-0.592-6.719,3.811-6.719H-128.931z"/>
	</g>
</g>
<path fill="none" stroke="#FFFFFF" stroke-width="2.5" stroke-miterlimit="10" d="M-182.6-123.449l17.942,19.16
	c0,0,26.44-43.268,51.724,0.001l17.942-19.162"/>
<path fill="#428CFF" d="M86.862,51.412l-5.742,3.71l0.206-0.028l0.058,0.028l-2.754-33.563c-0.773-0.047-1.52-0.062-2.289-0.049
	c-24.05,0.43-45.768,29.607-46.575,61.693c0,17.114,1.378,43.004,12.819,56.616c2.967,2.535,5.482,3.597,7.705,3.58
	c12.005-0.107,15.493-31.697,35.705-32.61l-3.13-43.695l11.036-6.277l0.02,0.011l0.021-0.013h0.001l0,0l11.806,7.207v0.001
	l-4.264,42.767c20.133,0.912,23.604,32.441,35.674,32.608c2.229,0,4.752-1.062,7.723-3.578c4.902-5.837,7.967-12.975,9.873-21.664
	c2.529-11.572,2.998-23.143,2.998-33.034h0.02c0,9.892-0.479,21.461-3.018,33.034c-1.898,8.689-4.959,17.406-9.863,23.246
	c-2.688,2.276-5.01,3.072-7.08,4.172h0.002c2.07-1.1,4.393-2.374,7.08-4.649c9.734-11.587,12.244-32.605,12.777-49.001
	c0.09-2.866,0.123-5.885,0.123-8.434c-0.904-32.087-21.959-61.393-45.961-61.82c-0.77-0.013-1.543-0.065-2.318-0.019l-2.965,34.384
	l-0.266-0.044v0.013l-7.518-4.219L98.282-9.971v-0.179c-2-0.285-4.189-0.438-6.197-0.438c-1.875,0-3.804,0.135-5.804,0.383v0.182
	L86.862,51.412z"/>
<path fill="none" stroke="#FFFFFF" stroke-miterlimit="10" d="M-175.998,216.154c-1.006,0-2.009,0.056-3.005,0.168
	c-1.907-11.792-12.162-20.826-24.487-20.826c-6.533,0-12.816,2.637-17.431,7.197c-3.319-1.776-7.063-2.648-10.883-2.486
	c-6.8-12.318-19.855-20.132-34.036-20.132c-21.441,0-38.886,17.445-38.886,38.886c0,1.657,0.105,3.319,0.319,4.969
	c-7.208,4.489-11.719,12.45-11.719,21.054c0,13.682,11.129,24.807,24.809,24.807c0.092,0,115.318,0,115.318,0
	c14.788,0,26.815-12.03,26.815-26.816C-149.179,228.185-161.21,216.154-175.998,216.154z M-175.998,261.744
	c0,0-115.362-0.008-115.318,0c-9.245,0-16.763-7.52-16.763-16.759c0-6.523,3.844-12.498,9.792-15.229
	c0.012-0.004,0.021-0.014,0.032-0.021c1.488-0.499,3.039-0.761,4.635-0.761c4.074,0,7.994,1.725,10.751,4.729
	c0.396,0.433,0.938,0.651,1.481,0.651c0.485,0,0.973-0.178,1.36-0.53c0.819-0.751,0.874-2.021,0.124-2.842
	c-3.516-3.834-8.515-6.035-13.716-6.035c-0.819,0-1.627,0.072-2.431,0.18c-0.409-2.034-0.629-4.107-0.629-6.168
	c0-17.006,13.836-30.84,30.841-30.84c12.024,0,23.032,7.09,28.041,18.062c0.765,1.677,2.569,2.617,4.385,2.286
	c0.858-0.156,1.655-0.232,2.437-0.232c3.033,0,5.902,1,8.298,2.89c0.043,0.035,0.099,0.061,0.144,0.091
	c3.24,2.525,5.622,6.06,6.688,10.079c0.24,0.903,1.053,1.498,1.945,1.498c0.169,0,0.346-0.021,0.519-0.067
	c1.074-0.284,1.713-1.387,1.43-2.46c-0.964-3.609-2.805-6.889-5.28-9.596c0.099-0.104,0.201-0.193,0.283-0.31
	c3.204-4.332,8.112-6.819,13.461-6.819c9.247,0,16.766,7.518,16.766,16.762c0,0.102-0.014,0.195-0.02,0.296l-0.025,0.407
	c-0.061,1.312,0.521,2.565,1.56,3.368c1.037,0.801,2.404,1.046,3.649,0.66c1.794-0.558,3.667-0.838,5.562-0.838
	c10.354,0,18.771,8.42,18.771,18.769C-157.23,253.323-165.646,261.744-175.998,261.744z"/>
</svg>
