<?xml version="1.0" encoding="utf-8"?>
<!-- Generator: Adobe Illustrator 16.0.0, SVG Export Plug-In . SVG Version: 6.00 Build 0)  -->
<!DOCTYPE svg PUBLIC "-//W3C//DTD SVG 1.1//EN" "http://www.w3.org/Graphics/SVG/1.1/DTD/svg11.dtd">
<svg version="1.1"
	 id="svg2" xmlns:dc="http://purl.org/dc/elements/1.1/" xmlns:cc="http://creativecommons.org/ns#" xmlns:rdf="http://www.w3.org/1999/02/22-rdf-syntax-ns#" xmlns:svg="http://www.w3.org/2000/svg" xmlns:sodipodi="http://sodipodi.sourceforge.net/DTD/sodipodi-0.dtd" xmlns:inkscape="http://www.inkscape.org/namespaces/inkscape" sodipodi:docname="space shuttle.svg" inkscape:version="0.48.2 r9819"
	 xmlns="http://www.w3.org/2000/svg" xmlns:xlink="http://www.w3.org/1999/xlink" x="0px" y="0px" width="134.984px"
	 height="187.557px" viewBox="0 0 134.984 187.557" enable-background="new 0 0 134.984 187.557" xml:space="preserve">
<sodipodi:namedview  inkscape:cy="52.654362" inkscape:cx="26.69104" inkscape:zoom="4" showgrid="true" guidetolerance="10" gridtolerance="10" objecttolerance="10" borderopacity="1" pagecolor="#ffffff" bordercolor="#666666" id="namedview6" inkscape:window-maximized="1" inkscape:window-y="-8" inkscape:window-height="706" inkscape:window-x="-8" inkscape:snap-grids="false" inkscape:current-layer="layer1" inkscape:window-width="1366" inkscape:pageopacity="0" inkscape:pageshadow="2">
	<inkscape:grid  type="xygrid" id="grid8729"></inkscape:grid>
</sodipodi:namedview>
<g id="layer2" inkscape:label="layer1" inkscape:groupmode="layer" display="none">
</g>
<rect x="-205.939" y="-129.469" display="none" width="134.938" height="187.462"/>
<g display="none">
	<polygon display="inline" fill="#FFFFFF" points="-156.659,25.491 -138.822,-99.395 -120.985,25.491 	"/>
	<polygon display="inline" fill="#FFFFFF" points="-120.931,25.491 -138.795,54.552 -156.659,25.491 	"/>
	<g display="inline">
		<path fill="#FFFFFF" d="M-128.931-107.509c4.4,0,6.115,2.958,3.812,6.706l-9.481,15.37c-2.305,3.749-6.075,3.724-8.379-0.024
			l-9.485-15.333c-2.305-3.748-0.591-6.719,3.811-6.719H-128.931z"/>
	</g>
</g>
<path display="none" fill="none" stroke="#FFFFFF" stroke-width="2.5" stroke-miterlimit="10" d="M-182.6-123.449l17.942,19.16
	c0,0,26.44-43.268,51.724,0.001l17.942-19.162"/>
<path fill="#428CFF" d="M111.592,153.527c0,1.049-0.85,1.896-1.896,1.896H25.289c-1.047,0-1.896-0.85-1.896-1.896V34.031
	c0-1.05,0.849-1.897,1.896-1.897h84.406c1.047,0,1.896,0.849,1.896,1.897L111.592,153.527L111.592,153.527z"/>
<path fill="none" stroke="#428CFF" stroke-miterlimit="10" d="M122.848,167.232c0,1.289-1.064,2.333-2.383,2.333H14.518
	c-1.315,0-2.381-1.044-2.381-2.333V20.324c0-1.288,1.063-2.332,2.381-2.332h105.947c1.316,0,2.383,1.044,2.383,2.332V167.232z"/>
<circle fill="none" stroke="#428CFF" stroke-width="0.75" stroke-miterlimit="10" cx="67.492" cy="163.012" r="3.931"/>
</svg>
