<?xml version="1.0" encoding="utf-8"?>
<!-- Generator: Adobe Illustrator 16.0.0, SVG Export Plug-In . SVG Version: 6.00 Build 0)  -->
<!DOCTYPE svg PUBLIC "-//W3C//DTD SVG 1.1//EN" "http://www.w3.org/Graphics/SVG/1.1/DTD/svg11.dtd">
<svg version="1.1"
	 id="svg2" xmlns:inkscape="http://www.inkscape.org/namespaces/inkscape" xmlns:sodipodi="http://sodipodi.sourceforge.net/DTD/sodipodi-0.dtd" xmlns:svg="http://www.w3.org/2000/svg" xmlns:rdf="http://www.w3.org/1999/02/22-rdf-syntax-ns#" xmlns:cc="http://creativecommons.org/ns#" xmlns:dc="http://purl.org/dc/elements/1.1/" inkscape:version="0.48.2 r9819" sodipodi:docname="space shuttle.svg"
	 xmlns="http://www.w3.org/2000/svg" xmlns:xlink="http://www.w3.org/1999/xlink" x="0px" y="0px" width="313.99px"
	 height="436.293px" viewBox="-89.503 -124.368 313.99 436.293" enable-background="new -89.503 -124.368 313.99 436.293"
	 xml:space="preserve">
<sodipodi:namedview  id="namedview6" bordercolor="#666666" pagecolor="#ffffff" borderopacity="1" objecttolerance="10" gridtolerance="10" guidetolerance="10" showgrid="true" inkscape:zoom="4" inkscape:cx="26.69104" inkscape:cy="52.654362" inkscape:window-x="-8" inkscape:current-layer="layer1" inkscape:window-maximized="1" inkscape:pageopacity="0" inkscape:pageshadow="2" inkscape:window-y="-8" inkscape:snap-grids="false" inkscape:window-height="706" inkscape:window-width="1366">
	<inkscape:grid  type="xygrid" id="grid8729"></inkscape:grid>
</sodipodi:namedview>
<g id="layer2" inkscape:label="layer1" inkscape:groupmode="layer" display="none">
</g>
<rect x="-205.939" y="-129.469" display="none" width="134.938" height="187.462"/>
<g display="none">
	<polygon display="inline" fill="#FFFFFF" points="-156.659,25.491 -138.822,-99.395 -120.985,25.491 	"/>
	<polygon display="inline" fill="#FFFFFF" points="-120.931,25.491 -138.795,54.552 -156.659,25.491 	"/>
	<g display="inline">
		<path fill="#FFFFFF" d="M-128.931-107.509c4.4,0,6.115,2.958,3.812,6.706l-9.479,15.368c-2.305,3.749-6.075,3.726-8.379-0.022
			l-9.485-15.333c-2.305-3.748-0.591-6.719,3.812-6.719H-128.931z"/>
	</g>
</g>
<path display="none" fill="none" stroke="#FFFFFF" stroke-width="2.5" stroke-miterlimit="10" d="M-182.6-123.449l17.94,19.16
	c0,0,26.44-43.27,51.726,0.001l17.94-19.162"/>
<g>
	<path fill="#428CFF" d="M176.597,241.6c0,2.6-2.102,4.692-4.689,4.692H-36.924c-2.59,0-4.689-2.104-4.689-4.692V-54.041
		c0-2.602,2.1-4.693,4.689-4.693h208.829c2.591,0,4.688,2.099,4.688,4.693L176.597,241.6L176.597,241.6z"/>
	<path fill="none" stroke="#428CFF" stroke-miterlimit="10" d="M204.445,275.507c0,3.188-2.634,5.771-5.9,5.771H-63.571
		c-3.255,0-5.891-2.583-5.891-5.771V-87.952c0-3.188,2.626-5.77,5.891-5.77h262.115c3.257,0,5.9,2.582,5.9,5.77V275.507z"/>
	<circle fill="none" stroke="#428CFF" stroke-width="0.75" stroke-miterlimit="10" cx="67.491" cy="265.067" r="9.725"/>
</g>
</svg>
