<?xml version="1.0" encoding="utf-8"?>
<!-- Generator: Adobe Illustrator 16.0.0, SVG Export Plug-In . SVG Version: 6.00 Build 0)  -->
<!DOCTYPE svg PUBLIC "-//W3C//DTD SVG 1.1//EN" "http://www.w3.org/Graphics/SVG/1.1/DTD/svg11.dtd">
<svg version="1.1" xmlns="http://www.w3.org/2000/svg" xmlns:xlink="http://www.w3.org/1999/xlink" x="0px" y="0px" width="250px"
	 height="250px" viewBox="0 0 250 250" enable-background="new 0 0 250 250" xml:space="preserve">
<g id="Layer_1" display="none">
	<rect x="68.397" y="27.853" display="inline" fill="none" width="113.206" height="51.03"/>
	<text transform="matrix(1 0 0 1 70.6011 72.5723)" display="inline" fill="#B3B3B3" font-family="'CanterBold'" font-size="80">PPTV</text>
	<g display="inline">
		
			<line fill="none" stroke="#B3B3B3" stroke-width="3" stroke-linecap="round" stroke-linejoin="round" stroke-miterlimit="10" x1="64" y1="197.5" x2="118" y2="197.5"/>
		
			<line fill="none" stroke="#B3B3B3" stroke-width="3" stroke-linecap="round" stroke-miterlimit="10" x1="118.807" y1="197.479" x2="154.87" y2="105.386"/>
		<line fill="none" stroke="#B3B3B3" stroke-width="3" stroke-miterlimit="10" x1="155" y1="105.5" x2="182" y2="105.5"/>
	</g>
	
		<circle display="inline" fill="none" stroke="#B3B3B3" stroke-width="3" stroke-miterlimit="10" cx="194.819" cy="117.418" r="17.543"/>
	
		<line display="inline" fill="none" stroke="#B3B3B3" stroke-width="3" stroke-linecap="round" stroke-linejoin="round" stroke-miterlimit="10" x1="64" y1="209.5" x2="126" y2="209.5"/>
	
		<line display="inline" fill="none" stroke="#B3B3B3" stroke-width="3" stroke-linecap="round" stroke-miterlimit="10" x1="126.807" y1="209.479" x2="162.87" y2="117.386"/>
	
		<line display="inline" fill="none" stroke="#B3B3B3" stroke-width="3" stroke-miterlimit="10" x1="163" y1="117.5" x2="177" y2="117.5"/>
	
		<line display="inline" fill="none" stroke="#B3B3B3" stroke-width="3" stroke-linecap="round" stroke-linejoin="round" stroke-miterlimit="10" x1="64" y1="223.5" x2="134" y2="223.5"/>
	
		<line display="inline" fill="none" stroke="#B3B3B3" stroke-width="3" stroke-linecap="round" stroke-miterlimit="10" x1="134.807" y1="223.479" x2="170.87" y2="131.386"/>
	
		<line display="inline" fill="none" stroke="#B3B3B3" stroke-width="3" stroke-miterlimit="10" x1="171" y1="131.5" x2="184" y2="131.5"/>
</g>
<g id="Layer_2">
	<rect x="0.042" y="27.853" fill="none" width="249.917" height="112.973"/>
	<text transform="matrix(1 0 0 1 17.083 72.5723)"><tspan x="0" y="0" fill="#B3B3B3" font-family="'CanterBold'" font-size="80">Apartment </tspan><tspan x="24.2" y="66" fill="#B3B3B3" font-family="'CanterBold'" font-size="80">Reviews</tspan></text>
	<g>
		<g>
			<g>
				<path fill="#808080" d="M160,222c0,2.762-2.238,5-5,5H95c-2.761,0-5-2.238-5-5v-49c0-2.762,2.239-5,5-5h60c2.762,0,5,2.238,5,5
					V222z"/>
			</g>
			<path fill="#808080" d="M92.456,244.81c0,0,37.469-21.981,43.645-30.711l-12.359-5.885l-26.334,6.613
				C97.41,214.837,102.533,234.196,92.456,244.81z"/>
		</g>
		<path opacity="0.5" fill="#1A1A1A" d="M117.118,214.014c-0.289-0.807-0.546-1.659-0.759-2.556
			c-0.221-0.896-0.375-1.816-0.464-2.757c-0.84,1.718-1.947,3.158-3.336,4.279c-1.377,1.168-3.022,1.718-4.928,1.718
			c-3.174,0-5.616-0.948-7.338-2.871c-1.716-1.914-2.577-4.527-2.577-7.837c0-3.489,1.142-6.184,3.434-8.109
			c2.287-1.918,5.626-2.874,10.008-2.874h4.591v-2.838c0-1.711-0.384-3.037-1.149-3.979c-0.767-0.942-1.91-1.409-3.417-1.409
			c-1.332,0-2.352,0.377-3.077,1.127c-0.714,0.758-1.072,1.794-1.072,3.116h-7.871l-0.055-0.2c-0.125-3.002,0.985-5.594,3.342-7.781
			c2.365-2.18,5.441-3.263,9.261-3.263c3.638,0,6.583,1.067,8.832,3.211c2.25,2.148,3.376,5.229,3.376,9.247v14.702
			c0,1.681,0.104,3.24,0.316,4.718c0.22,1.454,0.555,2.916,1.026,4.356H117.118L117.118,214.014z M109.64,207.607
			c1.42,0,2.691-0.414,3.809-1.244c1.123-0.836,1.89-1.809,2.295-2.893v-5.031h-4.592c-1.735,0-3.044,0.497-3.932,1.511
			c-0.887,1.01-1.33,2.254-1.33,3.708c0,1.206,0.335,2.171,0.991,2.88C107.549,207.245,108.468,207.607,109.64,207.607z"/>
		<path opacity="0.5" fill="#CCCCCC" d="M148.212,187.038l-2.992-0.102c-1.221,0-2.219,0.294-2.991,0.881
			c-0.792,0.596-1.385,1.425-1.798,2.503v24.04h-8.15v-35.586h7.596l0.358,5.269c0.714-1.871,1.628-3.324,2.751-4.364
			c1.13-1.039,2.438-1.56,3.907-1.56c0.415,0,0.8,0.029,1.139,0.109c0.346,0.078,0.7,0.169,1.051,0.279L148.212,187.038z"/>
	</g>
</g>
</svg>
